<?xml version="1.0" encoding="UTF-8" standalone="no"?>
<!-- Created with Inkscape (http://www.inkscape.org/) -->

<svg
   xmlns:dc="http://purl.org/dc/elements/1.1/"
   xmlns:cc="http://creativecommons.org/ns#"
   xmlns:rdf="http://www.w3.org/1999/02/22-rdf-syntax-ns#"
   xmlns:svg="http://www.w3.org/2000/svg"
   xmlns="http://www.w3.org/2000/svg"
   xmlns:sodipodi="http://sodipodi.sourceforge.net/DTD/sodipodi-0.dtd"
   xmlns:inkscape="http://www.inkscape.org/namespaces/inkscape"
   width="48"
   height="48"
   id="svg2"
   version="1.1"
   inkscape:version="0.48.3.1 r9886"
   sodipodi:docname="icon.svg">
  <defs
     id="defs4" />
  <sodipodi:namedview
     id="base"
     pagecolor="#ffffff"
     bordercolor="#666666"
     borderopacity="1.0"
     inkscape:pageopacity="0.0"
     inkscape:pageshadow="2"
     inkscape:zoom="12.4375"
     inkscape:cx="15.130456"
     inkscape:cy="22.878283"
     inkscape:document-units="px"
     inkscape:current-layer="layer1"
     showgrid="true"
     inkscape:window-width="1680"
     inkscape:window-height="1006"
     inkscape:window-x="0"
     inkscape:window-y="22"
     inkscape:window-maximized="1">
    <inkscape:grid
       type="xygrid"
       id="grid2985"
       empspacing="5"
       visible="true"
       enabled="true"
       snapvisiblegridlinesonly="true" />
  </sodipodi:namedview>
  <metadata
     id="metadata7">
    <rdf:RDF>
      <cc:Work
         rdf:about="">
        <dc:format>image/svg+xml</dc:format>
        <dc:type
           rdf:resource="http://purl.org/dc/dcmitype/StillImage" />
        <dc:title></dc:title>
      </cc:Work>
    </rdf:RDF>
  </metadata>
  <g
     inkscape:label="Layer 1"
     inkscape:groupmode="layer"
     id="layer1"
     transform="translate(0,-1004.3622)"
     sodipodi:insensitive="true"
     style="display:none">
    <path
       sodipodi:type="arc"
       style="opacity:0.5;fill:#00ffff;fill-opacity:0;stroke:#00ffff;stroke-width:2;stroke-miterlimit:4;stroke-opacity:1;stroke-dasharray:none"
       id="path2987"
       sodipodi:cx="24"
       sodipodi:cy="24"
       sodipodi:rx="20"
       sodipodi:ry="20"
       d="M 44,24 A 20,20 0 1 1 4,24 20,20 0 1 1 44,24 z"
       transform="translate(0,1004.3622)" />
  </g>
  <g
     inkscape:groupmode="layer"
     id="layer2"
     inkscape:label="Icon">
    <path
       style="fill:#00ffff;fill-opacity:0.09248555000000000;stroke:#00ffff;stroke-width:0.69;stroke-linejoin:round;stroke-miterlimit:4;stroke-opacity:1;stroke-dasharray:none"
       d="M 12.71875 11 L 12.71875 36 L 35.28125 36 L 35.28125 11 L 12.71875 11 z M 16 13 C 16.552285 13 17 13.447715 17 14 C 17 14.552285 16.552285 15 16 15 C 15.447715 15 15 14.552285 15 14 C 15 13.447715 15.447715 13 16 13 z M 16 22.5 C 16.552285 22.5 17 22.947715 17 23.5 C 17 24.052285 16.552285 24.5 16 24.5 C 15.447715 24.5 15 24.052285 15 23.5 C 15 22.947715 15.447715 22.5 16 22.5 z M 16 32 C 16.552285 32 17 32.447715 17 33 C 17 33.552285 16.552285 34 16 34 C 15.447715 34 15 33.552285 15 33 C 15 32.447715 15.447715 32 16 32 z "
       id="rect3057" />
    <rect
       y="16"
       x="12.709678"
       height="1"
       width="22.580645"
       id="rect3837"
       style="fill:#00ffff;fill-opacity:0.31791908;stroke:none" />
    <rect
       style="fill:#00ffff;fill-opacity:0.31791908;stroke:none"
       id="rect3839"
       width="22.580645"
       height="1"
       x="12.709678"
       y="21" />
    <rect
       y="26"
       x="12.709678"
       height="1"
       width="22.580645"
       id="rect3841"
       style="fill:#00ffff;fill-opacity:0.31791908;stroke:none" />
    <rect
       style="fill:#00ffff;fill-opacity:0.31791908;stroke:none"
       id="rect3843"
       width="22.580645"
       height="1"
       x="12.709678"
       y="31" />
    <rect
       y="18"
       x="-35.580643"
       height="1"
       width="24.580643"
       id="rect3845"
       style="fill:#00ffff;fill-opacity:0.31791908;stroke:none"
       transform="matrix(0,-1,1,0,0,0)" />
  </g>
</svg>
